<?xml version="1.0" encoding="UTF-8" standalone="no"?>
<!-- Created with Inkscape (http://www.inkscape.org/) -->

<svg
   xmlns:dc="http://purl.org/dc/elements/1.1/"
   xmlns:cc="http://creativecommons.org/ns#"
   xmlns:rdf="http://www.w3.org/1999/02/22-rdf-syntax-ns#"
   xmlns:svg="http://www.w3.org/2000/svg"
   xmlns="http://www.w3.org/2000/svg"
   xmlns:sodipodi="http://sodipodi.sourceforge.net/DTD/sodipodi-0.dtd"
   xmlns:inkscape="http://www.inkscape.org/namespaces/inkscape"
   width="1024"
   height="768"
   viewBox="0 0 1024 768"
   id="svg2"
   version="1.1"
   inkscape:version="0.48.2 r9819"
   sodipodi:docname="boosted_regression_tree.svg">
  <sodipodi:namedview
     id="base"
     pagecolor="#ffffff"
     bordercolor="#666666"
     borderopacity="1.0"
     inkscape:pageopacity="0.0"
     inkscape:pageshadow="2"
     inkscape:zoom="0.7"
     inkscape:cx="415.125"
     inkscape:cy="348.62399"
     inkscape:document-units="px"
     inkscape:current-layer="layer1"
     showgrid="false"
     inkscape:window-width="1280"
     inkscape:window-height="756"
     inkscape:window-x="40"
     inkscape:window-y="17"
     inkscape:window-maximized="0" />
  <defs
     id="defs4">
    <marker
       style="overflow:visible;"
       id="Arrow1Lend"
       refX="0.0"
       refY="0.0"
       orient="auto"
       inkscape:stockid="Arrow1Lend">
      <path
         transform="scale(0.8) rotate(180) translate(12.5,0)"
         style="fill-rule:evenodd;stroke:#000000;stroke-width:1.0pt;marker-start:none;"
         d="M 0.0,0.0 L 5.0,-5.0 L -12.5,0.0 L 5.0,5.0 L 0.0,0.0 z "
         id="path3788" />
    </marker>
  </defs>
  <metadata
     id="metadata7">
    <rdf:RDF>
      <cc:Work
         rdf:about="">
        <dc:format>image/svg+xml</dc:format>
        <dc:type
           rdf:resource="http://purl.org/dc/dcmitype/StillImage" />
        <dc:title />
      </cc:Work>
    </rdf:RDF>
  </metadata>
  <g
     transform="translate(0,-308.2677)"
     id="layer1"
     inkscape:groupmode="layer"
     inkscape:label="Layer 1">
    <text
       sodipodi:linespacing="125%"
       id="bottomtext"
       y="996.2677"
       x="50"
       style="font-size:32px;font-style:normal;font-variant:normal;font-weight:normal;font-stretch:normal;text-align:start;line-height:125%;letter-spacing:0px;word-spacing:0px;writing-mode:lr-tb;text-anchor:start;fill:#000000;fill-opacity:1;stroke:none;font-family:Latin Modern Sans;-inkscape-font-specification:Latin Modern Sans"
       xml:space="preserve"
       inkscape:label="#text4311"><tspan
         id="tspan4317"
         y="996.2677"
         x="50"
         sodipodi:role="line">- Supports discrete &amp; continous variables</tspan><tspan
         id="tspan4321"
         y="1036.2677"
         x="50"
         sodipodi:role="line">- Fast, simple fitting algorithm, <tspan
   id="tspan4348"
   style="stroke:#008000">highly accurate</tspan></tspan><tspan
         id="tspan4323"
         y="1076.2677"
         x="50"
         sodipodi:role="line" /><tspan
         id="tspan4315"
         y="1116.2677"
         x="50"
         sodipodi:role="line" /></text>
    <text
       xml:space="preserve"
       style="font-size:56px;font-style:normal;font-variant:normal;font-weight:normal;font-stretch:normal;text-align:start;line-height:125%;letter-spacing:0px;word-spacing:0px;writing-mode:lr-tb;text-anchor:start;fill:#000000;fill-opacity:1;stroke:none;font-family:Latin Modern Sans;-inkscape-font-specification:Latin Modern Sans"
       x="321.71399"
       y="367.98199"
       id="text4344"
       sodipodi:linespacing="125%"><tspan
         sodipodi:role="line"
         id="tspan4346"
         x="321.71399"
         y="367.98199">Regression Trees</tspan></text>
    <g
       transform="matrix(0.68789014,0,0,0.68789014,149.72623,223.9718)"
       id="g4370">
      <path
         sodipodi:type="arc"
         style="fill:none;stroke:#000000;stroke-width:3;stroke-linecap:round;stroke-linejoin:round;stroke-miterlimit:4;stroke-opacity:1;stroke-dasharray:none;stroke-dashoffset:0"
         id="path4350"
         sodipodi:cx="152.85715"
         sodipodi:cy="355.85715"
         sodipodi:rx="70"
         sodipodi:ry="165"
         d="m 222.85715,355.85715 c 0,91.12698 -31.34007,165 -70,165 -38.65994,0 -70.000003,-73.87302 -70.000003,-165 0,-91.12699 31.340063,-165 70.000003,-165 38.19689,0 69.34182,72.17783 69.98992,162.20039"
         transform="matrix(0.66377551,0,0,1,27.858602,308.2677)"
         sodipodi:start="0"
         sodipodi:end="6.2662172"
         sodipodi:open="true" />
      <path
         style="fill:#000000;stroke:#000000;stroke-width:1px;stroke-linecap:butt;stroke-linejoin:miter;stroke-opacity:1"
         d="m 82.85714,627.69627 -10,38.57143 21.42857,0 z"
         id="path4352"
         inkscape:connector-curvature="0" />
      <path
         inkscape:connector-curvature="0"
         id="path4354"
         d="m 174.85714,666.2677 -10,-38.57143 21.42857,0 z"
         style="fill:#000000;stroke:#000000;stroke-width:1px;stroke-linecap:butt;stroke-linejoin:miter;stroke-opacity:1" />
    </g>
    <text
       sodipodi:linespacing="175%"
       id="text4356"
       y="473.41055"
       x="297.14285"
       style="font-size:36px;font-style:normal;font-variant:normal;font-weight:normal;font-stretch:normal;text-align:start;line-height:175%;letter-spacing:0px;word-spacing:0px;writing-mode:lr-tb;text-anchor:start;fill:#000000;fill-opacity:1;stroke:none;font-family:Latin Modern Sans;-inkscape-font-specification:Latin Modern Sans"
       xml:space="preserve"><tspan
         y="473.41055"
         x="297.14285"
         id="tspan4358"
         sodipodi:role="line">0. Init y with the observed log-speedups</tspan><tspan
         id="tspan4366"
         y="536.41052"
         x="297.14285"
         sodipodi:role="line">1. Init empty model M = []</tspan><tspan
         id="tspan4364"
         y="599.41052"
         x="297.14285"
         sodipodi:role="line">2. Fit a shallow regression tree t(x) to predict y</tspan><tspan
         id="tspan4360"
         y="662.41052"
         x="297.14285"
         sodipodi:role="line">3. Define residual targets y' = y - t(x)</tspan><tspan
         id="tspan4362"
         y="725.41052"
         x="297.14285"
         sodipodi:role="line">4. Extend M to include t(x)</tspan><tspan
         id="tspan4368"
         y="788.41052"
         x="297.14285"
         sodipodi:role="line">5. Go back to step 2 with y = y'</tspan></text>
    <g
       id="Tx"
       transform="translate(-200,580)"
       inkscape:label="#g4401">
      <g
         word-spacing="normal"
         letter-spacing="normal"
         font-size-adjust="none"
         font-stretch="normal"
         font-weight="normal"
         font-variant="normal"
         font-style="normal"
         stroke-miterlimit="10.433"
         xml:space="preserve"
         transform="matrix(1.0971429,0,0,-1.0971429,-192,768)"
         id="content"
         style="font-style:normal;font-variant:normal;font-weight:normal;font-stretch:normal;letter-spacing:normal;word-spacing:normal;text-anchor:start;fill:none;stroke:#000000;stroke-linecap:butt;stroke-linejoin:miter;stroke-miterlimit:10.43299961;stroke-opacity:1;stroke-dasharray:none;stroke-dashoffset:0"><path
           id="path4404"
           d="m 476.8,436.43 0.02,0.07 0.01,0.06 0.03,0.12 0.03,0.12 0.03,0.11 0.03,0.11 0.03,0.09 0.03,0.1 0.03,0.09 0.03,0.08 0.03,0.08 0.03,0.07 0.03,0.07 0.03,0.06 0.03,0.06 0.03,0.06 0.03,0.05 0.03,0.05 0.03,0.04 0.04,0.04 0.03,0.04 0.04,0.04 0.03,0.03 0.04,0.03 0.04,0.03 0.04,0.02 0.05,0.03 0.04,0.02 0.05,0.02 0.04,0.01 0.05,0.02 0.06,0.01 0.05,0.02 c 0.45,0.11 2.1,0.11 3.14,0.11 5.03,0 7.27,-0.21 7.27,-4.1 0,-0.73 -0.19,-2.68 -0.39,-3.98 -0.05,-0.19 -0.16,-0.8 -0.16,-0.94 0,-0.3 0.16,-0.66 0.59,-0.66 0.57,0 0.66,0.41 0.75,1.16 l 1.35,8.66 c 0.06,0.2 0.11,0.7 0.11,0.86 0,0.54 -0.5,0.54 -1.35,0.54 H 461.6 c -1.21,0 -1.25,-0.06 -1.6,-1 l -2.98,-8.76 c -0.06,-0.11 -0.3,-0.8 -0.3,-0.91 0,-0.3 0.24,-0.55 0.6,-0.55 0.5,0 0.54,0.25 0.84,1.05 2.69,7.72 3.98,8.63 11.36,8.63 h 1.94 c 1.4,0 1.4,-0.21 1.4,-0.6 0,-0.31 -0.15,-0.9 -0.2,-1.04 l -6.67,-26.61 c -0.45,-1.85 -0.61,-2.39 -5.94,-2.39 -1.8,0 -2.09,0 -2.09,-0.96 0,-0.59 0.54,-0.59 0.84,-0.59 1.36,0 2.75,0.09 4.09,0.09 1.4,0 2.85,0.07 4.24,0.07 1.39,0 2.78,-0.07 4.14,-0.07 1.44,0 2.94,-0.09 4.33,-0.09 0.5,0 1.09,0 1.09,1 0,0.55 -0.39,0.55 -1.69,0.55 -1.25,0 -1.89,0 -3.18,0.09 -1.46,0.16 -1.85,0.3 -1.85,1.09 0,0.07 0,0.32 0.19,1.05 z"
           inkscape:connector-curvature="0"
           style="fill:#000000;stroke-width:0" /><path
           id="path4406"
           d="m 508.12,394.25 0,0.02 0,0.03 0,0.01 0,0.02 -0.01,0.01 0,0.02 -0.01,0.01 0,0.02 -0.01,0.02 -0.01,0.02 -0.02,0.02 -0.01,0.03 -0.02,0.02 -0.01,0.03 -0.03,0.03 -0.02,0.03 -0.03,0.03 -0.03,0.04 -0.01,0.02 -0.02,0.02 -0.01,0.02 -0.02,0.02 -0.02,0.02 -0.02,0.03 -0.02,0.02 -0.03,0.02 -0.02,0.03 -0.02,0.02 -0.03,0.03 -0.02,0.03 -0.03,0.03 -0.03,0.03 -0.02,0.03 -0.03,0.03 -0.04,0.03 -0.03,0.03 -0.03,0.04 -0.03,0.03 -0.04,0.04 -0.04,0.03 -0.03,0.04 -0.04,0.04 c -6.22,6.28 -7.82,15.69 -7.82,23.31 0,8.67 1.9,17.35 8.02,23.56 0.64,0.61 0.64,0.71 0.64,0.86 0,0.35 -0.19,0.49 -0.48,0.49 -0.5,0 -4.99,-3.38 -7.93,-9.7 -2.54,-5.49 -3.14,-11.02 -3.14,-15.21 0,-3.89 0.55,-9.9 3.29,-15.54 2.98,-6.13 7.28,-9.36 7.78,-9.36 0.29,0 0.48,0.14 0.48,0.5 z"
           inkscape:connector-curvature="0"
           style="fill:#000000;stroke-width:0" /><path
           id="path4408"
           d="m 527.59,421.25 0.03,0.13 0.04,0.15 0.04,0.16 0.05,0.18 0.05,0.19 0.06,0.21 0.07,0.22 0.07,0.22 0.08,0.23 0.09,0.24 0.09,0.25 0.1,0.24 0.12,0.25 0.11,0.25 0.13,0.25 0.14,0.25 0.15,0.24 0.16,0.24 0.16,0.23 0.18,0.22 0.19,0.22 0.19,0.2 0.21,0.19 0.22,0.18 0.24,0.16 0.24,0.14 0.13,0.07 0.13,0.06 0.13,0.05 0.14,0.05 0.14,0.05 0.14,0.04 0.14,0.03 0.15,0.03 0.15,0.02 0.16,0.02 0.16,0.01 0.16,0 c 0.25,0 1.44,0 2.49,-0.64 -1.4,-0.25 -2.4,-1.5 -2.4,-2.69 0,-0.79 0.55,-1.75 1.9,-1.75 1.09,0 2.68,0.89 2.68,2.89 0,2.6 -2.93,3.28 -4.62,3.28 -2.89,0 -4.64,-2.64 -5.24,-3.78 -1.25,3.28 -3.93,3.78 -5.37,3.78 -5.19,0 -8.03,-6.42 -8.03,-7.67 0,-0.5 0.5,-0.5 0.61,-0.5 0.39,0 0.54,0.11 0.64,0.55 1.69,5.28 4.98,6.53 6.67,6.53 0.95,0 2.69,-0.44 2.69,-3.33 0,-1.54 -0.85,-4.89 -2.69,-11.86 -0.8,-3.09 -2.53,-5.18 -4.74,-5.18 -0.29,0 -1.43,0 -2.48,0.65 1.25,0.24 2.34,1.28 2.34,2.69 0,1.34 -1.09,1.73 -1.84,1.73 -1.5,0 -2.75,-1.29 -2.75,-2.89 0,-2.28 2.5,-3.28 4.69,-3.28 3.3,0 5.08,3.49 5.23,3.78 0.6,-1.84 2.39,-3.78 5.38,-3.78 5.14,0 7.98,6.42 7.98,7.67 0,0.5 -0.45,0.5 -0.61,0.5 -0.44,0 -0.54,-0.2 -0.64,-0.54 -1.64,-5.33 -5.03,-6.53 -6.62,-6.53 -1.96,0 -2.75,1.59 -2.75,3.29 0,1.1 0.29,2.19 0.86,4.38 z"
           inkscape:connector-curvature="0"
           style="fill:#000000;stroke-width:0" /><path
           id="path4410"
           d="m 553.78,418.65 0,0.37 -0.01,0.39 0,0.39 -0.02,0.41 -0.04,0.84 -0.06,0.88 -0.08,0.92 -0.11,0.95 -0.13,0.97 -0.16,1.01 -0.2,1.02 -0.23,1.03 -0.27,1.05 -0.3,1.06 -0.35,1.07 -0.39,1.07 -0.22,0.53 -0.22,0.53 -0.24,0.53 -0.25,0.53 c -2.98,6.12 -7.27,9.36 -7.77,9.36 -0.29,0 -0.5,-0.19 -0.5,-0.49 0,-0.15 0,-0.25 0.94,-1.15 4.89,-4.92 7.74,-12.85 7.74,-23.27 0,-8.51 -1.85,-17.28 -8.03,-23.56 -0.65,-0.59 -0.65,-0.7 -0.65,-0.84 0,-0.3 0.21,-0.5 0.5,-0.5 0.5,0 4.97,3.39 7.93,9.71 2.53,5.47 3.12,11 3.12,15.19 z"
           inkscape:connector-curvature="0"
           style="fill:#000000;stroke-width:0" /><path
           id="path4412"
           d="m 606.86,422.5 0.14,0 0.14,0 0.15,0 0.07,0.01 0.07,0 0.07,0.01 0.08,0.01 0.07,0.01 0.07,0.01 0.06,0.01 0.07,0.02 0.07,0.02 0.06,0.02 0.06,0.02 0.06,0.03 0.05,0.03 0.06,0.04 0.05,0.03 0.04,0.05 0.05,0.04 0.04,0.05 0.02,0.03 0.01,0.03 0.02,0.02 0.01,0.03 0.02,0.03 0.01,0.04 0.01,0.03 0.01,0.04 0.01,0.03 0.01,0.04 0.01,0.04 0.01,0.04 0,0.04 0,0.04 0.01,0.04 0,0.05 c 0,1 -0.96,1 -1.64,1 h -29.85 c -0.7,0 -1.64,0 -1.64,-1 0,-0.98 0.94,-0.98 1.69,-0.98 z"
           inkscape:connector-curvature="0"
           style="fill:#000000;stroke-width:0" /><path
           id="path4414"
           d="m 606.91,412.82 0.06,0 0.07,0 0.13,0.01 0.14,0 0.07,0 0.07,0.01 0.07,0.01 0.07,0 0.07,0.01 0.07,0.02 0.06,0.01 0.07,0.02 0.06,0.02 0.06,0.02 0.06,0.02 0.06,0.03 0.06,0.03 0.05,0.04 0.05,0.04 0.04,0.04 0.05,0.05 0.02,0.02 0.02,0.03 0.02,0.02 0.01,0.03 0.02,0.03 0.01,0.03 0.02,0.03 0.01,0.03 0.01,0.04 0.01,0.03 0.01,0.04 0.01,0.04 0.01,0.04 0.01,0.04 0,0.04 0,0.04 0.01,0.05 0,0.04 c 0,1 -0.96,1 -1.69,1 h -29.75 c -0.75,0 -1.69,0 -1.69,-1 0,-1 0.94,-1 1.64,-1 z"
           inkscape:connector-curvature="0"
           style="fill:#000000;stroke-width:0" /><path
           id="path4416"
           d="m 646.17,416.91 -17.69,-21.86 c -0.39,-0.5 -0.44,-0.61 -0.44,-0.8 0,-0.56 0.44,-0.56 1.35,-0.56 h 41.29 l 4.29,12.41 h -1.24 c -1.25,-3.74 -4.59,-6.77 -8.83,-8.22 -0.8,-0.25 -4.23,-1.44 -11.55,-1.44 h -21.18 l 17.3,21.38 c 0.34,0.43 0.45,0.59 0.45,0.79 0,0.19 -0.07,0.25 -0.36,0.69 l -16.19,22.22 h 19.73 c 5.68,0 17.13,-0.34 20.63,-9.66 h 1.24 l -4.29,11.66 h -41.29 c -1.35,0 -1.39,-0.05 -1.39,-1.59 z"
           inkscape:connector-curvature="0"
           style="fill:#000000;stroke-width:0" /><path
           id="path4418"
           d="m 686.34,404.96 h 3.55 c 0.65,0 1.11,0 1.11,0.77 0,0.48 -0.46,0.48 -1.03,0.48 h -3.32 l 1.28,5.16 c 0.04,0.17 0.11,0.34 0.11,0.49 0,0.64 -0.48,1.12 -1.19,1.12 -0.87,0 -1.38,-0.59 -1.63,-1.5 -0.24,-0.87 0.21,0.8 -1.33,-5.27 h -3.55 c -0.66,0 -1.11,0 -1.11,-0.76 0,-0.49 0.41,-0.49 1.05,-0.49 h 3.29 l -2.04,-8.21 c -0.22,-0.88 -0.53,-2.13 -0.53,-2.58 0,-2.06 1.75,-3.31 3.73,-3.31 3.87,0 6.06,4.87 6.06,5.32 0,0.46 -0.45,0.46 -0.56,0.46 -0.41,0 -0.45,-0.08 -0.72,-0.66 -0.98,-2.2 -2.76,-4.16 -4.67,-4.16 -0.74,0 -1.22,0.46 -1.22,1.71 0,0.36 0.14,1.09 0.2,1.43 z"
           inkscape:connector-curvature="0"
           style="fill:#000000;stroke-width:0" /><path
           id="path4420"
           d="m 714.4,399.07 0.06,0 0.05,0 0.11,0.01 0.12,0 0.06,0 0.06,0.01 0.06,0 0.05,0.01 0.06,0.01 0.06,0.01 0.06,0.01 0.05,0.01 0.06,0.02 0.05,0.02 0.05,0.02 0.05,0.02 0.05,0.03 0.04,0.03 0.04,0.03 0.04,0.04 0.04,0.04 0.02,0.02 0.01,0.02 0.02,0.02 0.02,0.03 0.01,0.02 0.01,0.03 0.02,0.02 0.01,0.03 0.01,0.03 0.01,0.03 0,0.03 0.01,0.03 0.01,0.04 0,0.03 0.01,0.03 0,0.04 0,0.04 0,0.04 c 0,0.86 -0.79,0.86 -1.39,0.86 h -16.14 c 0.53,5.06 4.75,8.81 10.19,8.81 h 5.95 c 0.57,0 1.39,0 1.39,0.84 0,0.88 -0.79,0.88 -1.39,0.88 h -6.09 c -6.49,0 -11.78,-5.1 -11.78,-11.36 0,-6.42 5.36,-11.39 11.78,-11.39 h 6.09 c 0.57,0 1.39,0 1.39,0.83 0,0.87 -0.79,0.87 -1.39,0.87 h -5.95 c -5.44,0 -9.66,3.77 -10.19,8.81 z"
           inkscape:connector-curvature="0"
           style="fill:#000000;stroke-width:0" /><path
           id="path4422"
           d="m 755.22,412.17 0.03,0.12 0.03,0.11 0.02,0.11 0.03,0.1 0.03,0.09 0.03,0.1 0.03,0.08 0.03,0.08 0.03,0.08 0.04,0.07 0.04,0.07 0.05,0.06 0.05,0.05 0.06,0.06 0.06,0.05 0.07,0.04 0.07,0.05 0.08,0.03 0.09,0.04 0.1,0.03 0.1,0.03 0.06,0.01 0.06,0.01 0.06,0.01 0.06,0.01 0.07,0.01 0.07,0.01 0.07,0.01 0.07,0.01 0.08,0.01 0.08,0 0.08,0.01 0.09,0 0.09,0.01 0.09,0 0.09,0 0.1,0.01 0.1,0 0.11,0 0.11,0 0.11,0.01 0.11,0 0.12,0 c 0.74,0 1.19,0 1.19,0.73 0,0.52 -0.42,0.52 -1.05,0.52 h -4.73 c -1.02,0 -1.05,-0.04 -1.5,-0.69 l -13.46,-19.88 -3.43,19.63 C 735,414.96 735,415 733.97,415 h -4.99 c -0.7,0 -1.15,0 -1.15,-0.77 0,-0.48 0.42,-0.48 1.19,-0.48 0.56,0 0.68,0 1.32,-0.08 0.69,-0.06 0.77,-0.14 0.77,-0.49 0,-0.03 0,-0.23 -0.14,-0.76 l -4.39,-17.49 c -0.31,-1.18 -0.85,-2.37 -3.63,-2.48 -0.28,0 -0.73,-0.03 -0.73,-0.77 0,-0.03 0.03,-0.48 0.51,-0.48 1.05,0 2.52,0.14 3.63,0.14 0.84,0 2.86,-0.14 3.7,-0.14 0.17,0 0.69,0 0.69,0.76 0,0.46 -0.45,0.49 -0.77,0.49 -2.21,0.08 -2.21,0.98 -2.21,1.47 0,0.14 0,0.31 0.14,0.87 l 4.62,18.53 h 0.03 l 3.74,-21.18 c 0.11,-0.63 0.17,-0.94 0.7,-0.94 0.48,0 0.77,0.39 1,0.76 l 14.64,21.71 0.03,-0.03 -4.9,-19.72 c -0.29,-1.19 -0.36,-1.47 -3.08,-1.47 -0.63,0 -1.05,0 -1.05,-0.77 0,-0.03 0,-0.48 0.56,-0.48 0.68,0 1.47,0.11 2.16,0.11 0.7,0 1.5,0.03 2.2,0.03 0.97,0 3.46,-0.14 4.42,-0.14 0.22,0 0.74,0 0.74,0.76 0,0.49 -0.42,0.49 -1.11,0.49 -0.05,0 -0.7,0 -1.33,0.08 -0.8,0.06 -0.8,0.17 -0.8,0.51 0,0.22 0.1,0.57 0.14,0.77 z"
           inkscape:connector-curvature="0"
           style="fill:#000000;stroke-width:0" /><path
           id="path4424"
           d="m 782.47,426.12 h 4.68 c 0.99,0 1.49,0 1.49,1 0,0.55 -0.5,0.55 -1.39,0.55 h -4.4 c 1.8,7.08 2.05,8.08 2.05,8.37 0,0.85 -0.59,1.35 -1.43,1.35 -0.16,0 -1.55,-0.05 -2,-1.8 l -1.94,-7.92 h -4.69 c -1,0 -1.5,0 -1.5,-0.94 0,-0.61 0.41,-0.61 1.41,-0.61 h 4.37 c -3.58,-14.14 -3.78,-14.98 -3.78,-15.89 0,-2.69 1.89,-4.58 4.58,-4.58 5.08,0 7.92,7.27 7.92,7.67 0,0.5 -0.39,0.5 -0.59,0.5 -0.46,0 -0.5,-0.15 -0.75,-0.7 -2.15,-5.17 -4.78,-6.37 -6.47,-6.37 -1.05,0 -1.55,0.65 -1.55,2.29 0,1.19 0.09,1.55 0.3,2.39 z"
           inkscape:connector-curvature="0"
           style="fill:#000000;stroke-width:0" /><path
           id="path4426"
           d="m 806.68,394.25 0,0.02 0,0.03 0,0.01 0,0.02 0,0.01 -0.01,0.02 0,0.01 -0.01,0.02 -0.01,0.02 -0.01,0.02 -0.01,0.02 -0.02,0.03 -0.01,0.02 -0.02,0.03 -0.02,0.03 -0.03,0.03 -0.02,0.03 -0.03,0.04 -0.02,0.02 -0.01,0.02 -0.02,0.02 -0.02,0.02 -0.02,0.02 -0.02,0.03 -0.02,0.02 -0.02,0.02 -0.02,0.03 -0.03,0.02 -0.02,0.03 -0.03,0.03 -0.03,0.03 -0.02,0.03 -0.03,0.03 -0.03,0.03 -0.03,0.03 -0.03,0.03 -0.04,0.04 -0.03,0.03 -0.04,0.04 -0.03,0.03 -0.04,0.04 -0.04,0.04 c -6.22,6.28 -7.81,15.69 -7.81,23.31 0,8.67 1.89,17.35 8.01,23.56 0.64,0.61 0.64,0.71 0.64,0.86 0,0.35 -0.18,0.49 -0.48,0.49 -0.5,0 -4.98,-3.38 -7.92,-9.7 -2.55,-5.49 -3.14,-11.02 -3.14,-15.21 0,-3.89 0.54,-9.9 3.28,-15.54 2.98,-6.13 7.28,-9.36 7.78,-9.36 0.3,0 0.48,0.14 0.48,0.5 z"
           inkscape:connector-curvature="0"
           style="fill:#000000;stroke-width:0" /><path
           id="path4428"
           d="m 826.16,421.25 0.03,0.13 0.03,0.15 0.04,0.16 0.05,0.18 0.05,0.19 0.06,0.21 0.07,0.22 0.07,0.22 0.08,0.23 0.09,0.24 0.09,0.25 0.11,0.24 0.11,0.25 0.12,0.25 0.13,0.25 0.13,0.25 0.15,0.24 0.16,0.24 0.16,0.23 0.18,0.22 0.19,0.22 0.2,0.2 0.21,0.19 0.22,0.18 0.23,0.16 0.24,0.14 0.13,0.07 0.13,0.06 0.13,0.05 0.14,0.05 0.14,0.05 0.14,0.04 0.15,0.03 0.15,0.03 0.15,0.02 0.15,0.02 0.16,0.01 0.16,0 c 0.25,0 1.44,0 2.49,-0.64 -1.39,-0.25 -2.39,-1.5 -2.39,-2.69 0,-0.79 0.54,-1.75 1.89,-1.75 1.09,0 2.69,0.89 2.69,2.89 0,2.6 -2.94,3.28 -4.63,3.28 -2.89,0 -4.64,-2.64 -5.23,-3.78 -1.25,3.28 -3.94,3.78 -5.38,3.78 -5.19,0 -8.03,-6.42 -8.03,-7.67 0,-0.5 0.5,-0.5 0.61,-0.5 0.39,0 0.55,0.11 0.64,0.55 1.69,5.28 4.98,6.53 6.67,6.53 0.96,0 2.69,-0.44 2.69,-3.33 0,-1.54 -0.84,-4.89 -2.69,-11.86 -0.8,-3.09 -2.53,-5.18 -4.73,-5.18 -0.3,0 -1.44,0 -2.49,0.65 1.25,0.24 2.35,1.28 2.35,2.69 0,1.34 -1.1,1.73 -1.85,1.73 -1.5,0 -2.75,-1.29 -2.75,-2.89 0,-2.28 2.5,-3.28 4.69,-3.28 3.3,0 5.08,3.49 5.24,3.78 0.59,-1.84 2.39,-3.78 5.37,-3.78 5.14,0 7.98,6.42 7.98,7.67 0,0.5 -0.45,0.5 -0.61,0.5 -0.43,0 -0.54,-0.2 -0.64,-0.54 -1.64,-5.33 -5.03,-6.53 -6.62,-6.53 -1.95,0 -2.75,1.59 -2.75,3.29 0,1.1 0.3,2.19 0.86,4.38 z"
           inkscape:connector-curvature="0"
           style="fill:#000000;stroke-width:0" /><path
           id="path4430"
           d="m 852.34,418.65 0,0.37 0,0.39 -0.01,0.39 -0.01,0.41 -0.04,0.84 -0.06,0.88 -0.09,0.92 -0.1,0.95 -0.14,0.97 -0.16,1.01 -0.2,1.02 -0.23,1.03 -0.26,1.05 -0.31,1.06 -0.35,1.07 -0.39,1.07 -0.22,0.53 -0.22,0.53 -0.24,0.53 -0.25,0.53 c -2.98,6.12 -7.26,9.36 -7.76,9.36 -0.3,0 -0.5,-0.19 -0.5,-0.49 0,-0.15 0,-0.25 0.93,-1.15 4.89,-4.92 7.74,-12.85 7.74,-23.27 0,-8.51 -1.85,-17.28 -8.03,-23.56 -0.64,-0.59 -0.64,-0.7 -0.64,-0.84 0,-0.3 0.2,-0.5 0.5,-0.5 0.5,0 4.97,3.39 7.92,9.71 2.53,5.47 3.12,11 3.12,15.19 z"
           inkscape:connector-curvature="0"
           style="fill:#000000;stroke-width:0" /></g>    </g>
    <rect
       style="fill:#ffffff;fill-opacity:0.88938054;stroke:none"
       id="loop_cover"
       width="854.28577"
       height="268.57144"
       x="175.71428"
       y="556.2677"
       ry="29.806593"
       inkscape:label="#rect5091" />
    <text
       sodipodi:linespacing="125%"
       id="text12632"
       y="367.98199"
       x="81.713989"
       style="font-size:56px;font-style:normal;font-variant:normal;font-weight:normal;font-stretch:normal;text-align:start;line-height:125%;letter-spacing:0px;word-spacing:0px;writing-mode:lr-tb;text-anchor:start;fill:#000000;fill-opacity:1;stroke:none;font-family:Latin Modern Sans;-inkscape-font-specification:Latin Modern Sans"
       xml:space="preserve"><tspan
         y="367.98199"
         x="81.713989"
         id="tspan12634"
         sodipodi:role="line">[Boosted]</tspan></text>
  </g>
</svg>
