<?xml version="1.0" encoding="UTF-8" standalone="no"?>
<!-- Created with Inkscape (http://www.inkscape.org/) -->

<svg
   xmlns:dc="http://purl.org/dc/elements/1.1/"
   xmlns:cc="http://creativecommons.org/ns#"
   xmlns:rdf="http://www.w3.org/1999/02/22-rdf-syntax-ns#"
   xmlns:svg="http://www.w3.org/2000/svg"
   xmlns="http://www.w3.org/2000/svg"
   xmlns:sodipodi="http://sodipodi.sourceforge.net/DTD/sodipodi-0.dtd"
   xmlns:inkscape="http://www.inkscape.org/namespaces/inkscape"
   id="svg2"
   version="1.1"
   inkscape:version="0.48.2 r9819"
   width="602.89375"
   height="555.78"
   xml:space="preserve"
   sodipodi:docname="fig_allstars_mixup_580_R1.pdf"><metadata
     id="metadata8"><rdf:RDF><cc:Work
         rdf:about=""><dc:format>image/svg+xml</dc:format><dc:type
           rdf:resource="http://purl.org/dc/dcmitype/StillImage" /><dc:title></dc:title></cc:Work></rdf:RDF></metadata><defs
     id="defs6"><clipPath
       clipPathUnits="userSpaceOnUse"
       id="clipPath54"><path
         d="m 0,444.624 482.315,0 L 482.315,0 0,0 0,444.624 z"
         id="path56" /></clipPath><clipPath
       clipPathUnits="userSpaceOnUse"
       id="clipPath82"><path
         d="m 0,444.624 482.315,0 L 482.315,0 0,0 0,444.624 z"
         id="path84" /></clipPath></defs><sodipodi:namedview
     pagecolor="#ffffff"
     bordercolor="#666666"
     borderopacity="1"
     objecttolerance="10"
     gridtolerance="10"
     guidetolerance="10"
     inkscape:pageopacity="0"
     inkscape:pageshadow="2"
     inkscape:window-width="640"
     inkscape:window-height="480"
     id="namedview4"
     showgrid="false"
     inkscape:zoom="0.42462843"
     inkscape:cx="301.44687"
     inkscape:cy="277.89001"
     inkscape:window-x="0"
     inkscape:window-y="0"
     inkscape:window-maximized="0"
     inkscape:current-layer="g10" /><g
     id="g10"
     inkscape:groupmode="layer"
     inkscape:label="fig_allstars_mixup_580_R1"
     transform="matrix(1.25,0,0,-1.25,0,555.78)"><path
       d="m 104.516,69.3 74.4,0 0,295.162 -74.4,0 0,-295.162 z"
       style="fill:#0000ff;fill-opacity:1;fill-rule:nonzero;stroke:none"
       id="path12" /><path
       d="m 239.815,69.3 74.4,0 0,241.864 -74.4,0 0,-241.864 z"
       style="fill:#0000ff;fill-opacity:1;fill-rule:nonzero;stroke:none"
       id="path14" /><path
       d="m 375.115,69.3 74.4,0 0,151.381 -74.4,0 0,-151.381 z"
       style="fill:#0000ff;fill-opacity:1;fill-rule:nonzero;stroke:none"
       id="path16" /><g
       id="g18"
       transform="translate(57.3154,69.2998)"><path
         d="M 0,0 -4,0"
         style="fill:none;stroke:#000000;stroke-opacity:1;stroke-width:0.5;stroke-linecap:butt;stroke-linejoin:round;stroke-miterlimit:10;stroke-dasharray:none"
         id="path20" /></g><text
       transform="matrix(1,0,0,-1,37.0811,65.7314)"
       id="text22"><tspan
         style="fill:#000000;fill-opacity:1;fill-rule:nonzero;stroke:none;font-family:Myriad Pro;font-variant:normal;font-weight:normal;font-stretch:normal;font-size:14;writing-mode:lr;-inkscape-font-specification:CMR8"
         x="0"
         y="0"
         id="tspan24">0</tspan></text>
<g
       id="g26"
       transform="translate(57.3154,184.5)"><path
         d="M 0,0 -4,0"
         style="fill:none;stroke:#000000;stroke-opacity:1;stroke-width:0.5;stroke-linecap:butt;stroke-linejoin:round;stroke-miterlimit:10;stroke-dasharray:none"
         id="path28" /></g><text
       transform="matrix(1,0,0,-1,28.6128,180.9316)"
       id="text30"><tspan
         style="fill:#000000;fill-opacity:1;fill-rule:nonzero;stroke:none;font-family:Myriad Pro;font-variant:normal;font-weight:normal;font-stretch:normal;font-size:14;writing-mode:lr;-inkscape-font-specification:CMR8"
         x="0 7.182 14.364"
         y="0"
         sodipodi:role="line"
         id="tspan32">200</tspan></text>
<g
       id="g34"
       transform="translate(57.3154,299.6997)"><path
         d="M 0,0 -4,0"
         style="fill:none;stroke:#000000;stroke-opacity:1;stroke-width:0.5;stroke-linecap:butt;stroke-linejoin:round;stroke-miterlimit:10;stroke-dasharray:none"
         id="path36" /></g><text
       transform="matrix(1,0,0,-1,28.6128,296.1313)"
       id="text38"><tspan
         style="fill:#000000;fill-opacity:1;fill-rule:nonzero;stroke:none;font-family:Myriad Pro;font-variant:normal;font-weight:normal;font-stretch:normal;font-size:14;writing-mode:lr;-inkscape-font-specification:CMR8"
         x="0 7.182 14.364"
         y="0"
         sodipodi:role="line"
         id="tspan40">400</tspan></text>
<g
       id="g42"
       transform="translate(57.3154,414.8994)"><path
         d="M 0,0 -4,0"
         style="fill:none;stroke:#000000;stroke-opacity:1;stroke-width:0.5;stroke-linecap:butt;stroke-linejoin:round;stroke-miterlimit:10;stroke-dasharray:none"
         id="path44" /></g><text
       transform="matrix(1,0,0,-1,28.6128,411.3315)"
       id="text46"><tspan
         style="fill:#000000;fill-opacity:1;fill-rule:nonzero;stroke:none;font-family:Myriad Pro;font-variant:normal;font-weight:normal;font-stretch:normal;font-size:14;writing-mode:lr;-inkscape-font-specification:CMR8"
         x="0 7.182 14.364"
         y="0"
         sodipodi:role="line"
         id="tspan48">600</tspan></text>
<g
       id="g50"><g
         id="g52"
         clip-path="url(#clipPath54)"><text
           transform="matrix(0,1,1,0,15.0664,178.7246)"
           id="text58"><tspan
             style="fill:#000000;fill-opacity:1;fill-rule:nonzero;stroke:none;font-family:Myriad Pro;font-variant:normal;font-weight:normal;font-stretch:normal;font-size:18;writing-mode:lr;-inkscape-font-specification:NimbusSanL-Regu"
             x="0 10.296 18.504 27.504 33.21 41.868 51.912 65.898 77.508 86.274 94.752 107.136 116.712 122.868"
             y="0"
             sodipodi:role="line"
             id="tspan60">AverageGFLOP/s</tspan></text>
<g
           id="g62"
           transform="translate(67.3154,68.2998)"><path
             d="M 0,0 415,0"
             style="fill:none;stroke:#000000;stroke-opacity:1;stroke-width:0.5;stroke-linecap:square;stroke-linejoin:round;stroke-miterlimit:10;stroke-dasharray:none"
             id="path64" /></g></g></g><g
       id="g66"
       transform="translate(57.3154,69.2998)"><path
         d="M 0,0 0,345.6"
         style="fill:none;stroke:#000000;stroke-opacity:1;stroke-width:0.5;stroke-linecap:square;stroke-linejoin:round;stroke-miterlimit:10;stroke-dasharray:none"
         id="path68" /></g><text
       transform="matrix(1,0,0,-1,100.4355,26.0996)"
       id="text70"><tspan
         style="fill:#000000;fill-opacity:1;fill-rule:nonzero;stroke:none;font-family:Myriad Pro;font-variant:normal;font-weight:normal;font-stretch:normal;font-size:18;writing-mode:lr;-inkscape-font-specification:NimbusSanL-Regu"
         x="0 10.296 19.494 24.732 33.894 38.7 43.938 53.136 62.406 70.704"
         y="0"
         sodipodi:role="line"
         id="tspan72">Auto-tuned</tspan><tspan
         style="fill:#000000;fill-opacity:1;fill-rule:nonzero;stroke:none;font-family:Myriad Pro;font-variant:normal;font-weight:normal;font-stretch:normal;font-size:18;writing-mode:lr;-inkscape-font-specification:NimbusSanL-Regu"
         x="142.992 151.956 160.254 164.79 173.088 178.254 186.552 195.822 203.166"
         y="4.662"
         sodipodi:role="line"
         id="tspan74">Reference</tspan><tspan
         style="fill:#000000;fill-opacity:1;fill-rule:nonzero;stroke:none;font-family:Myriad Pro;font-variant:normal;font-weight:normal;font-stretch:normal;font-size:18;writing-mode:lr;-inkscape-font-specification:NimbusSanL-Regu"
         x="266.148 279.9 283.392 289.8 295.038 309.33 317.286 322.524 329.868 339.138 347.436"
         y="0"
         sodipodi:role="line"
         id="tspan76">Mistmatched</tspan></text>
<g
       id="g78"><g
         id="g80"
         clip-path="url(#clipPath82)"><text
           transform="matrix(1,0,0,-1,371.8877,4.5)"
           id="text86"><tspan
             style="fill:#000000;fill-opacity:1;fill-rule:nonzero;stroke:none;font-family:Myriad Pro;font-variant:normal;font-weight:normal;font-stretch:normal;font-size:18;writing-mode:lr;-inkscape-font-specification:NimbusSanL-Regu"
             x="0 10.296 19.494 24.732 33.894 38.7 43.938 53.136 62.406 70.704"
             y="0"
             sodipodi:role="line"
             id="tspan88">Auto-tuned</tspan></text>
<text
           transform="matrix(1,0,0,-1,185.2119,423.8994)"
           id="text90"><tspan
             style="fill:#000000;fill-opacity:1;fill-rule:nonzero;stroke:none;font-family:Verdana;font-variant:normal;font-weight:bold;font-stretch:normal;font-size:24;writing-mode:lr;-inkscape-font-specification:Verdana-Bold"
             x="0 19.44 35.808 60.744 77.784 94.824"
             y="0"
             sodipodi:role="line"
             id="tspan92">GTX580</tspan></text>
</g></g></g></svg>