<?xml version="1.0" encoding="UTF-8" standalone="no"?>
<!-- Created with Inkscape (http://www.inkscape.org/) -->

<svg
   xmlns:dc="http://purl.org/dc/elements/1.1/"
   xmlns:cc="http://creativecommons.org/ns#"
   xmlns:rdf="http://www.w3.org/1999/02/22-rdf-syntax-ns#"
   xmlns:svg="http://www.w3.org/2000/svg"
   xmlns="http://www.w3.org/2000/svg"
   xmlns:sodipodi="http://sodipodi.sourceforge.net/DTD/sodipodi-0.dtd"
   xmlns:inkscape="http://www.inkscape.org/namespaces/inkscape"
   width="1024px"
   height="768px"
   viewBox="0 0 1024 768"
   id="svg3119"
   version="1.1"
   inkscape:version="0.48.2 r9819"
   sodipodi:docname="predictive_auto_tuning.svg">
  <defs
     id="defs3121">
    <marker
       inkscape:stockid="Arrow1Lend"
       orient="auto"
       refY="0.0"
       refX="0.0"
       id="Arrow1Lend"
       style="overflow:visible;">
      <path
         id="path3965"
         d="M 0.0,0.0 L 5.0,-5.0 L -12.5,0.0 L 5.0,5.0 L 0.0,0.0 z "
         style="fill-rule:evenodd;stroke:#000000;stroke-width:1.0pt;marker-start:none;"
         transform="scale(0.8) rotate(180) translate(12.5,0)" />
    </marker>
  </defs>
  <sodipodi:namedview
     id="base"
     pagecolor="#ffffff"
     bordercolor="#666666"
     borderopacity="1.0"
     inkscape:pageopacity="0.0"
     inkscape:pageshadow="2"
     inkscape:zoom="0.35355339"
     inkscape:cx="624.76774"
     inkscape:cy="477.65728"
     inkscape:current-layer="emp"
     inkscape:document-units="px"
     showgrid="false"
     inkscape:window-width="1000"
     inkscape:window-height="670"
     inkscape:window-x="126"
     inkscape:window-y="10"
     inkscape:window-maximized="0" />
  <metadata
     id="metadata3124">
    <rdf:RDF>
      <cc:Work
         rdf:about="">
        <dc:format>image/svg+xml</dc:format>
        <dc:type
           rdf:resource="http://purl.org/dc/dcmitype/StillImage" />
        <dc:title />
      </cc:Work>
    </rdf:RDF>
  </metadata>
  <g
     id="layer1"
     inkscape:label="Layer 1"
     inkscape:groupmode="layer">
    <text
       xml:space="preserve"
       style="font-size:40px;font-style:normal;font-variant:normal;font-weight:normal;font-stretch:normal;text-align:start;line-height:125%;letter-spacing:0px;word-spacing:0px;writing-mode:lr-tb;text-anchor:start;fill:#000000;fill-opacity:1;stroke:none;font-family:Latin Modern Sans;-inkscape-font-specification:Latin Modern Sans"
       x="68"
       y="574"
       id="text3127"
       sodipodi:linespacing="125%"><tspan
         sodipodi:role="line"
         x="68"
         y="574"
         id="tspan3139">Problem</tspan><tspan
         sodipodi:role="line"
         x="68"
         y="624"
         id="tspan6856">Configuration</tspan></text>
    <text
       xml:space="preserve"
       style="font-size:40px;font-style:normal;font-variant:normal;font-weight:normal;font-stretch:normal;text-align:start;line-height:125%;letter-spacing:0px;word-spacing:0px;writing-mode:lr-tb;text-anchor:start;fill:#000000;fill-opacity:1;stroke:none;font-family:Latin Modern Sans;-inkscape-font-specification:Latin Modern Sans"
       x="374"
       y="570"
       id="text3131"
       sodipodi:linespacing="125%"><tspan
         sodipodi:role="line"
         id="tspan3133"
         x="374"
         y="570">Implementation</tspan></text>
    <text
       xml:space="preserve"
       style="font-size:40px;font-style:normal;font-variant:normal;font-weight:normal;font-stretch:normal;text-align:start;line-height:125%;letter-spacing:0px;word-spacing:0px;writing-mode:lr-tb;text-anchor:start;fill:#000000;fill-opacity:1;stroke:none;font-family:Latin Modern Sans;-inkscape-font-specification:Latin Modern Sans"
       x="774"
       y="572"
       id="text3135"
       sodipodi:linespacing="125%"><tspan
         sodipodi:role="line"
         id="tspan3137"
         x="774"
         y="572">Hardware</tspan></text>
    <rect
       style="fill:none;stroke:#000000;stroke-width:0.99664253"
       id="rect3141"
       width="256.4812"
       height="135.9812"
       x="52.009403"
       y="520.0094"
       ry="29.827293" />
    <rect
       ry="29.806593"
       y="520.05658"
       x="352.05655"
       height="135.8867"
       width="307.58694"
       id="rect3143"
       style="fill:none;stroke:#000000;stroke-width:1.09105051" />
    <rect
       style="fill:none;stroke:#000000;stroke-width:0.99664253"
       id="rect3145"
       width="256.4812"
       height="135.9812"
       x="732.0094"
       y="520.0094"
       ry="29.827293" />
    <g
       id="emp"
       inkscape:label="#emp">
      <g
         transform="translate(240,-40)"
         id="g3175">
        <path
           sodipodi:type="arc"
           style="fill:#0000ff;stroke:#000000;stroke-width:2.5;stroke-miterlimit:4;stroke-opacity:1;stroke-dasharray:none;stroke-dashoffset:0"
           id="path3147"
           sodipodi:cx="86"
           sodipodi:cy="189"
           sodipodi:rx="6"
           sodipodi:ry="7"
           d="m 92,189 c 0,3.86599 -2.686292,7 -6,7 -3.313708,0 -6,-3.13401 -6,-7 0,-3.86599 2.686292,-7 6,-7 3.313708,0 6,3.13401 6,7 z" />
        <path
           d="m 92,189 c 0,3.86599 -2.686292,7 -6,7 -3.313708,0 -6,-3.13401 -6,-7 0,-3.86599 2.686292,-7 6,-7 3.313708,0 6,3.13401 6,7 z"
           sodipodi:ry="7"
           sodipodi:rx="6"
           sodipodi:cy="189"
           sodipodi:cx="86"
           id="path3149"
           style="fill:#0000ff;stroke:#000000;stroke-width:2.5;stroke-miterlimit:4;stroke-opacity:1;stroke-dasharray:none;stroke-dashoffset:0"
           sodipodi:type="arc"
           transform="translate(20,20)" />
        <path
           transform="translate(-20,40)"
           sodipodi:type="arc"
           style="fill:#0000ff;stroke:#000000;stroke-width:2.5;stroke-miterlimit:4;stroke-opacity:1;stroke-dasharray:none;stroke-dashoffset:0"
           id="path3151"
           sodipodi:cx="86"
           sodipodi:cy="189"
           sodipodi:rx="6"
           sodipodi:ry="7"
           d="m 92,189 c 0,3.86599 -2.686292,7 -6,7 -3.313708,0 -6,-3.13401 -6,-7 0,-3.86599 2.686292,-7 6,-7 3.313708,0 6,3.13401 6,7 z" />
        <path
           d="m 92,189 c 0,3.86599 -2.686292,7 -6,7 -3.313708,0 -6,-3.13401 -6,-7 0,-3.86599 2.686292,-7 6,-7 3.313708,0 6,3.13401 6,7 z"
           sodipodi:ry="7"
           sodipodi:rx="6"
           sodipodi:cy="189"
           sodipodi:cx="86"
           id="path3153"
           style="fill:#0000ff;stroke:#000000;stroke-width:2.5;stroke-miterlimit:4;stroke-opacity:1;stroke-dasharray:none;stroke-dashoffset:0"
           sodipodi:type="arc"
           transform="translate(26,104)" />
        <path
           transform="translate(-14,84)"
           sodipodi:type="arc"
           style="fill:#0000ff;stroke:#000000;stroke-width:2.5;stroke-miterlimit:4;stroke-opacity:1;stroke-dasharray:none;stroke-dashoffset:0"
           id="path3155"
           sodipodi:cx="86"
           sodipodi:cy="189"
           sodipodi:rx="6"
           sodipodi:ry="7"
           d="m 92,189 c 0,3.86599 -2.686292,7 -6,7 -3.313708,0 -6,-3.13401 -6,-7 0,-3.86599 2.686292,-7 6,-7 3.313708,0 6,3.13401 6,7 z" />
        <path
           d="m 92,189 c 0,3.86599 -2.686292,7 -6,7 -3.313708,0 -6,-3.13401 -6,-7 0,-3.86599 2.686292,-7 6,-7 3.313708,0 6,3.13401 6,7 z"
           sodipodi:ry="7"
           sodipodi:rx="6"
           sodipodi:cy="189"
           sodipodi:cx="86"
           id="path3157"
           style="fill:#0000ff;stroke:#000000;stroke-width:2.5;stroke-miterlimit:4;stroke-opacity:1;stroke-dasharray:none;stroke-dashoffset:0"
           sodipodi:type="arc"
           transform="translate(30,64)" />
        <path
           transform="translate(6,50)"
           sodipodi:type="arc"
           style="fill:#0000ff;stroke:#000000;stroke-width:2.5;stroke-miterlimit:4;stroke-opacity:1;stroke-dasharray:none;stroke-dashoffset:0"
           id="path3159"
           sodipodi:cx="86"
           sodipodi:cy="189"
           sodipodi:rx="6"
           sodipodi:ry="7"
           d="m 92,189 c 0,3.86599 -2.686292,7 -6,7 -3.313708,0 -6,-3.13401 -6,-7 0,-3.86599 2.686292,-7 6,-7 3.313708,0 6,3.13401 6,7 z" />
        <path
           d="m 92,189 c 0,3.86599 -2.686292,7 -6,7 -3.313708,0 -6,-3.13401 -6,-7 0,-3.86599 2.686292,-7 6,-7 3.313708,0 6,3.13401 6,7 z"
           sodipodi:ry="7"
           sodipodi:rx="6"
           sodipodi:cy="189"
           sodipodi:cx="86"
           id="path3161"
           style="fill:#0000ff;stroke:#000000;stroke-width:2.5;stroke-miterlimit:4;stroke-opacity:1;stroke-dasharray:none;stroke-dashoffset:0"
           sodipodi:type="arc"
           transform="translate(36,40)" />
        <path
           transform="translate(40,84)"
           sodipodi:type="arc"
           style="fill:#0000ff;stroke:#000000;stroke-width:2.5;stroke-miterlimit:4;stroke-opacity:1;stroke-dasharray:none;stroke-dashoffset:0"
           id="path3163"
           sodipodi:cx="86"
           sodipodi:cy="189"
           sodipodi:rx="6"
           sodipodi:ry="7"
           d="m 92,189 c 0,3.86599 -2.686292,7 -6,7 -3.313708,0 -6,-3.13401 -6,-7 0,-3.86599 2.686292,-7 6,-7 3.313708,0 6,3.13401 6,7 z" />
        <path
           d="m 92,189 c 0,3.86599 -2.686292,7 -6,7 -3.313708,0 -6,-3.13401 -6,-7 0,-3.86599 2.686292,-7 6,-7 3.313708,0 6,3.13401 6,7 z"
           sodipodi:ry="7"
           sodipodi:rx="6"
           sodipodi:cy="189"
           sodipodi:cx="86"
           id="path3165"
           style="fill:#0000ff;stroke:#000000;stroke-width:2.5;stroke-miterlimit:4;stroke-opacity:1;stroke-dasharray:none;stroke-dashoffset:0"
           sodipodi:type="arc"
           transform="translate(6,82)" />
      </g>
      <text
         sodipodi:linespacing="125%"
         id="text3167"
         y="196.59885"
         x="84"
         style="font-size:40px;font-style:normal;font-variant:normal;font-weight:normal;font-stretch:normal;text-align:start;line-height:125%;letter-spacing:0px;word-spacing:0px;writing-mode:lr-tb;text-anchor:start;fill:#000000;fill-opacity:1;stroke:none;font-family:Latin Modern Sans;-inkscape-font-specification:Latin Modern Sans"
         xml:space="preserve"><tspan
           id="tspan3173"
           y="196.59885"
           x="84"
           sodipodi:role="line">Empirical</tspan><tspan
           y="246.59885"
           x="84"
           sodipodi:role="line"
           id="tspan6863">Timing</tspan></text>
      <path
         inkscape:connector-curvature="0"
         id="path3187"
         d="M 178,502 508,410 388,312"
         style="fill:none;stroke:#000000;stroke-width:3;stroke-linecap:butt;stroke-linejoin:miter;stroke-opacity:1;marker-end:url(#Arrow1Lend);stroke-miterlimit:4;stroke-dasharray:none" />
      <path
         inkscape:connector-curvature="0"
         id="path3189"
         d="m 508,506 0,-96 332,96"
         style="fill:none;stroke:#000000;stroke-width:3;stroke-linecap:butt;stroke-linejoin:miter;stroke-opacity:1;stroke-miterlimit:4;stroke-dasharray:none" />
    </g>
    <g
       id="tx"
       inkscape:label="#tx">
      <path
         inkscape:connector-curvature="0"
         id="path4403"
         d="m 407.29351,207.97143 195.16147,0"
         style="fill:none;stroke:#008000;stroke-width:3;stroke-linecap:butt;stroke-linejoin:miter;stroke-opacity:1;stroke-miterlimit:4;stroke-dasharray:none;marker-end:url(#Arrow1Lend)" />
      <path
         inkscape:connector-curvature="0"
         id="path4405"
         d="M 506.99556,410.20397 629.32504,270.90393"
         style="fill:none;stroke:#008000;stroke-width:3;stroke-linecap:butt;stroke-linejoin:miter;stroke-opacity:1;stroke-miterlimit:4;stroke-dasharray:none;marker-end:url(#Arrow1Lend)" />
      <text
         sodipodi:linespacing="125%"
         id="text4771"
         y="232.41747"
         x="616.4978"
         style="font-size:71.35294342px;font-style:normal;font-variant:normal;font-weight:normal;font-stretch:normal;text-align:start;line-height:125%;letter-spacing:0px;word-spacing:0px;writing-mode:lr-tb;text-anchor:start;fill:#000000;fill-opacity:1;stroke:none;font-family:Latin Modern Sans;-inkscape-font-specification:Latin Modern Sans"
         xml:space="preserve"><tspan
           style="fill:#008000"
           y="232.41747"
           x="616.4978"
           id="tspan4773"
           sodipodi:role="line">T(x)</tspan></text>
      <text
         sodipodi:linespacing="125%"
         id="text4775"
         y="196.59885"
         x="797.41547"
         style="font-size:40px;font-style:normal;font-variant:normal;font-weight:normal;font-stretch:normal;text-align:start;line-height:125%;letter-spacing:0px;word-spacing:0px;writing-mode:lr-tb;text-anchor:start;fill:#000000;fill-opacity:1;stroke:none;font-family:Latin Modern Sans;-inkscape-font-specification:Latin Modern Sans"
         xml:space="preserve"><tspan
           y="196.59885"
           x="797.41547"
           id="tspan4777"
           sodipodi:role="line">Statistical</tspan><tspan
           id="tspan4781"
           y="246.59885"
           x="797.41547"
           sodipodi:role="line">Timing</tspan><tspan
           id="tspan4779"
           y="296.59885"
           x="797.41547"
           sodipodi:role="line">Model</tspan></text>
    </g>
    <text
       xml:space="preserve"
       style="font-size:56px;font-style:normal;font-variant:normal;font-weight:normal;font-stretch:normal;text-align:start;line-height:125%;letter-spacing:0px;word-spacing:0px;writing-mode:lr-tb;text-anchor:start;fill:#000000;fill-opacity:1;stroke:none;font-family:Latin Modern Sans;-inkscape-font-specification:Latin Modern Sans"
       x="243.1026"
       y="74.064789"
       id="text4783"
       sodipodi:linespacing="125%"><tspan
         sodipodi:role="line"
         id="tspan4785"
         x="243.1026"
         y="74.064789">Predictive Auto-Tuning</tspan></text>
  </g>
</svg>
